<svg xmlns="http://www.w3.org/2000/svg" xmlns:xlink="http://www.w3.org/1999/xlink" width="500" zoomAndPan="magnify" viewBox="0 0 375 374.999991" height="500" preserveAspectRatio="xMidYMid meet" version="1.0"><defs><clipPath id="a6660fb41b"><path d="M 264 205 L 314 205 L 314 254.367188 L 264 254.367188 Z M 264 205 " clip-rule="nonzero"/></clipPath><clipPath id="d9e0088743"><path d="M 23.96875 120.867188 L 350.96875 120.867188 L 350.96875 230 L 23.96875 230 Z M 23.96875 120.867188 " clip-rule="nonzero"/></clipPath></defs><path fill="#ffffff" d="M 295.976562 229.835938 C 295.976562 230.28125 295.933594 230.71875 295.847656 231.152344 C 295.761719 231.585938 295.632812 232.007812 295.464844 232.417969 C 295.296875 232.824219 295.089844 233.214844 294.84375 233.582031 C 294.597656 233.949219 294.316406 234.289062 294.003906 234.605469 C 293.691406 234.917969 293.351562 235.195312 292.980469 235.441406 C 292.613281 235.6875 292.226562 235.894531 291.816406 236.066406 C 291.40625 236.234375 290.988281 236.363281 290.550781 236.449219 C 290.117188 236.535156 289.679688 236.578125 289.238281 236.578125 C 288.796875 236.578125 288.355469 236.535156 287.921875 236.449219 C 287.488281 236.363281 287.066406 236.234375 286.65625 236.066406 C 286.25 235.894531 285.859375 235.6875 285.492188 235.441406 C 285.125 235.195312 284.785156 234.917969 284.472656 234.605469 C 284.160156 234.289062 283.878906 233.949219 283.632812 233.582031 C 283.386719 233.214844 283.179688 232.824219 283.011719 232.417969 C 282.839844 232.007812 282.714844 231.585938 282.625 231.152344 C 282.539062 230.71875 282.496094 230.28125 282.496094 229.835938 C 282.496094 229.394531 282.539062 228.957031 282.625 228.523438 C 282.714844 228.089844 282.839844 227.667969 283.011719 227.257812 C 283.179688 226.847656 283.386719 226.460938 283.632812 226.09375 C 283.878906 225.722656 284.160156 225.382812 284.472656 225.070312 C 284.785156 224.757812 285.125 224.480469 285.492188 224.234375 C 285.859375 223.988281 286.25 223.78125 286.65625 223.609375 C 287.066406 223.441406 287.488281 223.3125 287.921875 223.226562 C 288.355469 223.140625 288.796875 223.097656 289.238281 223.097656 C 289.679688 223.097656 290.117188 223.140625 290.550781 223.226562 C 290.988281 223.3125 291.40625 223.441406 291.816406 223.609375 C 292.226562 223.78125 292.613281 223.988281 292.980469 224.234375 C 293.351562 224.480469 293.691406 224.757812 294.003906 225.070312 C 294.316406 225.382812 294.597656 225.722656 294.84375 226.09375 C 295.089844 226.460938 295.296875 226.847656 295.464844 227.257812 C 295.632812 227.667969 295.761719 228.089844 295.847656 228.523438 C 295.933594 228.957031 295.976562 229.394531 295.976562 229.835938 Z M 295.976562 229.835938 " fill-opacity="1" fill-rule="nonzero"/><g clip-path="url(#a6660fb41b)"><path fill="#ffffff" d="M 289.238281 205.542969 C 288.441406 205.542969 287.648438 205.582031 286.855469 205.660156 C 286.066406 205.738281 285.277344 205.855469 284.496094 206.011719 C 283.71875 206.164062 282.945312 206.359375 282.183594 206.589844 C 281.425781 206.820312 280.675781 207.089844 279.941406 207.394531 C 279.207031 207.695312 278.488281 208.035156 277.785156 208.410156 C 277.082031 208.785156 276.402344 209.195312 275.742188 209.636719 C 275.078125 210.078125 274.441406 210.554688 273.824219 211.058594 C 273.210938 211.5625 272.621094 212.097656 272.058594 212.660156 C 271.496094 213.222656 270.960938 213.808594 270.457031 214.425781 C 269.953125 215.039062 269.480469 215.679688 269.039062 216.339844 C 268.597656 217 268.1875 217.683594 267.8125 218.386719 C 267.4375 219.085938 267.097656 219.804688 266.792969 220.539062 C 266.488281 221.277344 266.21875 222.023438 265.988281 222.785156 C 265.757812 223.546875 265.566406 224.316406 265.410156 225.097656 C 265.253906 225.878906 265.136719 226.664062 265.0625 227.457031 C 264.984375 228.246094 264.945312 229.042969 264.945312 229.835938 C 264.945312 230.632812 264.984375 231.425781 265.0625 232.21875 C 265.136719 233.011719 265.253906 233.796875 265.410156 234.578125 C 265.566406 235.355469 265.757812 236.128906 265.988281 236.890625 C 266.21875 237.652344 266.488281 238.398438 266.792969 239.132812 C 267.097656 239.871094 267.4375 240.585938 267.8125 241.289062 C 268.1875 241.992188 268.597656 242.671875 269.039062 243.335938 C 269.480469 243.996094 269.953125 244.632812 270.457031 245.25 C 270.960938 245.863281 271.496094 246.453125 272.058594 247.015625 C 272.621094 247.578125 273.210938 248.113281 273.824219 248.617188 C 274.441406 249.121094 275.078125 249.59375 275.742188 250.035156 C 276.402344 250.480469 277.082031 250.886719 277.785156 251.261719 C 278.488281 251.636719 279.207031 251.976562 279.941406 252.28125 C 280.675781 252.585938 281.425781 252.855469 282.183594 253.085938 C 282.945312 253.316406 283.71875 253.507812 284.496094 253.664062 C 285.277344 253.820312 286.066406 253.9375 286.855469 254.015625 C 287.648438 254.09375 288.441406 254.132812 289.238281 254.132812 C 290.035156 254.132812 290.828125 254.09375 291.617188 254.015625 C 292.410156 253.9375 293.195312 253.820312 293.976562 253.664062 C 294.757812 253.507812 295.527344 253.316406 296.289062 253.085938 C 297.050781 252.855469 297.800781 252.585938 298.535156 252.28125 C 299.269531 251.976562 299.988281 251.636719 300.691406 251.261719 C 301.390625 250.886719 302.074219 250.480469 302.734375 250.035156 C 303.394531 249.59375 304.035156 249.121094 304.648438 248.617188 C 305.265625 248.113281 305.851562 247.578125 306.414062 247.015625 C 306.980469 246.453125 307.511719 245.863281 308.015625 245.25 C 308.523438 244.632812 308.996094 243.996094 309.4375 243.335938 C 309.878906 242.671875 310.289062 241.992188 310.664062 241.289062 C 311.039062 240.585938 311.378906 239.871094 311.683594 239.132812 C 311.988281 238.398438 312.253906 237.652344 312.484375 236.890625 C 312.714844 236.128906 312.910156 235.355469 313.066406 234.578125 C 313.21875 233.796875 313.335938 233.011719 313.414062 232.21875 C 313.492188 231.425781 313.53125 230.632812 313.53125 229.835938 C 313.53125 229.042969 313.492188 228.246094 313.414062 227.457031 C 313.335938 226.664062 313.21875 225.878906 313.066406 225.097656 C 312.910156 224.316406 312.714844 223.546875 312.484375 222.785156 C 312.253906 222.023438 311.988281 221.277344 311.683594 220.539062 C 311.378906 219.804688 311.039062 219.085938 310.664062 218.386719 C 310.289062 217.683594 309.878906 217 309.4375 216.339844 C 308.996094 215.679688 308.523438 215.039062 308.015625 214.425781 C 307.511719 213.808594 306.980469 213.222656 306.414062 212.660156 C 305.851562 212.097656 305.265625 211.5625 304.648438 211.058594 C 304.035156 210.554688 303.394531 210.078125 302.734375 209.636719 C 302.074219 209.195312 301.390625 208.785156 300.691406 208.410156 C 299.988281 208.035156 299.269531 207.695312 298.535156 207.394531 C 297.800781 207.089844 297.050781 206.820312 296.289062 206.589844 C 295.527344 206.359375 294.757812 206.164062 293.976562 206.011719 C 293.195312 205.855469 292.410156 205.738281 291.617188 205.660156 C 290.828125 205.582031 290.035156 205.542969 289.238281 205.542969 Z M 289.238281 243.597656 C 288.332031 243.597656 287.4375 243.511719 286.554688 243.335938 C 285.667969 243.160156 284.804688 242.898438 283.972656 242.550781 C 283.136719 242.207031 282.34375 241.78125 281.59375 241.28125 C 280.839844 240.777344 280.144531 240.207031 279.507812 239.570312 C 278.867188 238.929688 278.296875 238.234375 277.796875 237.484375 C 277.292969 236.730469 276.867188 235.9375 276.523438 235.105469 C 276.175781 234.269531 275.917969 233.410156 275.738281 232.523438 C 275.5625 231.636719 275.476562 230.742188 275.476562 229.835938 C 275.476562 228.933594 275.5625 228.039062 275.738281 227.152344 C 275.917969 226.265625 276.175781 225.40625 276.523438 224.570312 C 276.867188 223.734375 277.292969 222.941406 277.796875 222.191406 C 278.296875 221.441406 278.867188 220.746094 279.507812 220.105469 C 280.144531 219.46875 280.839844 218.898438 281.59375 218.394531 C 282.34375 217.894531 283.136719 217.46875 283.972656 217.121094 C 284.804688 216.777344 285.667969 216.515625 286.554688 216.339844 C 287.4375 216.164062 288.332031 216.074219 289.238281 216.074219 C 290.140625 216.074219 291.035156 216.164062 291.921875 216.339844 C 292.808594 216.515625 293.667969 216.777344 294.503906 217.121094 C 295.339844 217.46875 296.132812 217.894531 296.882812 218.394531 C 297.632812 218.898438 298.328125 219.46875 298.96875 220.105469 C 299.609375 220.746094 300.179688 221.441406 300.679688 222.191406 C 301.183594 222.941406 301.605469 223.734375 301.953125 224.570312 C 302.296875 225.40625 302.558594 226.265625 302.734375 227.152344 C 302.910156 228.039062 303 228.933594 303 229.835938 C 303 230.742188 302.910156 231.636719 302.734375 232.519531 C 302.554688 233.40625 302.292969 234.265625 301.949219 235.101562 C 301.601562 235.9375 301.175781 236.726562 300.675781 237.480469 C 300.171875 238.230469 299.601562 238.925781 298.964844 239.5625 C 298.324219 240.203125 297.628906 240.773438 296.878906 241.273438 C 296.128906 241.777344 295.335938 242.203125 294.5 242.546875 C 293.667969 242.894531 292.808594 243.15625 291.921875 243.332031 C 291.035156 243.507812 290.140625 243.597656 289.238281 243.597656 Z M 289.238281 243.597656 " fill-opacity="1" fill-rule="nonzero"/></g><g clip-path="url(#d9e0088743)"><path fill="#ffffff" d="M 350.644531 211.300781 L 349.863281 211.300781 C 349.757812 211.300781 349.667969 211.261719 349.59375 211.1875 C 349.519531 211.113281 349.480469 211.023438 349.480469 210.917969 L 349.480469 194.832031 C 349.480469 194.726562 349.445312 194.636719 349.367188 194.5625 C 349.292969 194.488281 349.203125 194.449219 349.097656 194.449219 L 344.386719 194.449219 C 344.28125 194.449219 344.191406 194.488281 344.117188 194.5625 C 344.042969 194.636719 344.003906 194.726562 344.003906 194.832031 L 344.003906 210.917969 C 344.003906 211.023438 343.96875 211.113281 343.890625 211.1875 C 343.816406 211.261719 343.726562 211.300781 343.621094 211.300781 L 339.332031 211.300781 C 339.226562 211.300781 339.136719 211.261719 339.0625 211.1875 C 338.984375 211.113281 338.949219 211.023438 338.949219 210.917969 L 338.949219 183.175781 C 338.949219 183.070312 338.910156 182.980469 338.835938 182.90625 C 338.761719 182.832031 338.671875 182.792969 338.566406 182.792969 L 336.242188 182.792969 C 336.136719 182.792969 336.046875 182.757812 335.972656 182.683594 C 335.898438 182.609375 335.859375 182.519531 335.859375 182.414062 L 335.859375 169.695312 C 335.859375 169.589844 335.820312 169.5 335.746094 169.425781 C 335.671875 169.351562 335.582031 169.3125 335.476562 169.3125 L 333.933594 169.3125 C 333.363281 168.558594 332.652344 167.972656 331.808594 167.554688 C 330.960938 167.132812 330.0625 166.925781 329.117188 166.925781 L 269.492188 166.925781 L 269.492188 143.714844 C 269.492188 143.609375 269.53125 143.519531 269.605469 143.445312 C 269.679688 143.371094 269.769531 143.335938 269.875 143.335938 L 276.078125 143.335938 C 276.183594 143.335938 276.273438 143.296875 276.347656 143.222656 C 276.421875 143.148438 276.457031 143.058594 276.457031 142.953125 L 276.457031 124.195312 C 276.457031 124.089844 276.421875 124 276.347656 123.925781 C 276.273438 123.851562 276.183594 123.816406 276.078125 123.816406 L 261.515625 123.816406 C 261.441406 123.816406 261.375 123.792969 261.3125 123.753906 C 259.859375 122.808594 258.300781 122.089844 256.636719 121.597656 C 254.976562 121.109375 253.277344 120.863281 251.546875 120.867188 L 38.644531 120.867188 C 37.746094 120.867188 36.855469 120.953125 35.976562 121.128906 C 35.09375 121.304688 34.238281 121.5625 33.40625 121.90625 C 32.574219 122.253906 31.785156 122.675781 31.039062 123.171875 C 30.292969 123.671875 29.597656 124.242188 28.964844 124.875 C 28.328125 125.511719 27.761719 126.203125 27.261719 126.953125 C 26.761719 127.699219 26.339844 128.488281 25.996094 129.320312 C 25.652344 130.148438 25.390625 131.003906 25.214844 131.886719 C 25.039062 132.769531 24.953125 133.660156 24.953125 134.558594 L 24.953125 137.476562 C 24.953125 137.582031 24.992188 137.671875 25.066406 137.746094 C 25.140625 137.820312 25.230469 137.855469 25.335938 137.855469 L 28.886719 137.855469 C 28.992188 137.855469 29.082031 137.894531 29.15625 137.96875 C 29.230469 138.042969 29.265625 138.132812 29.265625 138.238281 L 29.265625 169.210938 C 29.265625 169.316406 29.304688 169.40625 29.378906 169.484375 C 29.453125 169.558594 29.542969 169.59375 29.652344 169.59375 L 44.792969 169.59375 C 44.898438 169.59375 44.988281 169.632812 45.0625 169.707031 C 45.136719 169.78125 45.175781 169.871094 45.175781 169.976562 L 45.175781 173.832031 C 45.175781 173.988281 45.105469 174.101562 44.964844 174.171875 L 32.59375 180.40625 C 31.59375 180.910156 30.734375 181.589844 30.011719 182.441406 C 29.285156 183.292969 28.757812 184.253906 28.421875 185.320312 C 28.449219 185.375 28.464844 185.433594 28.464844 185.496094 L 28.464844 213.582031 C 28.464844 213.6875 28.429688 213.777344 28.355469 213.855469 C 28.28125 213.929688 28.1875 213.96875 28.082031 213.96875 L 24.351562 213.96875 C 24.246094 213.96875 24.15625 214.007812 24.082031 214.082031 C 24.007812 214.15625 23.96875 214.246094 23.96875 214.351562 L 23.96875 228.753906 C 23.96875 228.859375 24.007812 228.949219 24.082031 229.023438 C 24.15625 229.097656 24.246094 229.136719 24.351562 229.136719 L 64.875 229.136719 C 64.980469 229.136719 65.070312 229.097656 65.144531 229.023438 C 65.21875 228.949219 65.257812 228.859375 65.253906 228.75 L 65.253906 228.644531 C 65.253906 227.777344 65.296875 226.910156 65.382812 226.050781 C 65.46875 225.1875 65.59375 224.328125 65.765625 223.480469 C 65.933594 222.628906 66.144531 221.789062 66.394531 220.960938 C 66.648438 220.128906 66.9375 219.316406 67.269531 218.515625 C 67.601562 217.714844 67.972656 216.929688 68.382812 216.164062 C 68.789062 215.402344 69.234375 214.660156 69.71875 213.9375 C 70.199219 213.214844 70.714844 212.519531 71.265625 211.851562 C 71.8125 211.179688 72.394531 210.539062 73.007812 209.925781 C 73.621094 209.3125 74.261719 208.730469 74.933594 208.183594 C 75.605469 207.632812 76.300781 207.117188 77.019531 206.632812 C 77.742188 206.152344 78.484375 205.707031 79.25 205.296875 C 80.011719 204.890625 80.796875 204.519531 81.597656 204.1875 C 82.398438 203.855469 83.210938 203.566406 84.042969 203.3125 C 84.871094 203.0625 85.710938 202.851562 86.5625 202.683594 C 87.414062 202.511719 88.269531 202.386719 89.132812 202.300781 C 89.996094 202.214844 90.859375 202.171875 91.726562 202.171875 C 92.59375 202.171875 93.457031 202.214844 94.320312 202.300781 C 95.183594 202.386719 96.039062 202.511719 96.890625 202.683594 C 97.742188 202.851562 98.582031 203.0625 99.410156 203.3125 C 100.238281 203.566406 101.054688 203.855469 101.855469 204.1875 C 102.65625 204.519531 103.441406 204.890625 104.203125 205.296875 C 104.96875 205.707031 105.710938 206.152344 106.433594 206.632812 C 107.152344 207.117188 107.847656 207.632812 108.519531 208.183594 C 109.1875 208.730469 109.832031 209.3125 110.445312 209.925781 C 111.058594 210.539062 111.636719 211.179688 112.1875 211.851562 C 112.738281 212.519531 113.253906 213.214844 113.734375 213.9375 C 114.21875 214.660156 114.664062 215.402344 115.070312 216.164062 C 115.480469 216.929688 115.851562 217.714844 116.183594 218.515625 C 116.515625 219.316406 116.804688 220.128906 117.058594 220.960938 C 117.308594 221.789062 117.519531 222.628906 117.6875 223.480469 C 117.859375 224.328125 117.984375 225.1875 118.070312 226.050781 C 118.15625 226.910156 118.195312 227.777344 118.195312 228.644531 L 118.195312 228.75 C 118.195312 228.859375 118.234375 228.949219 118.308594 229.023438 C 118.382812 229.097656 118.472656 229.136719 118.578125 229.136719 L 262.035156 229.136719 C 262.140625 229.136719 262.230469 229.097656 262.304688 229.023438 C 262.378906 228.949219 262.417969 228.859375 262.414062 228.75 L 262.414062 228.644531 C 262.414062 227.300781 262.515625 225.96875 262.71875 224.644531 C 262.921875 223.316406 263.222656 222.015625 263.625 220.734375 C 264.027344 219.457031 264.519531 218.214844 265.109375 217.007812 C 265.699219 215.804688 266.375 214.652344 267.140625 213.550781 C 267.90625 212.449219 268.75 211.410156 269.671875 210.4375 C 270.59375 209.460938 271.585938 208.566406 272.644531 207.742188 C 273.703125 206.917969 274.816406 206.179688 275.988281 205.527344 C 277.160156 204.875 278.375 204.3125 279.632812 203.84375 C 280.886719 203.375 282.171875 203.003906 283.484375 202.730469 C 284.796875 202.457031 286.125 202.285156 287.464844 202.210938 C 288.800781 202.140625 290.140625 202.167969 291.472656 202.300781 C 292.808594 202.429688 294.125 202.660156 295.425781 202.992188 C 296.726562 203.324219 297.992188 203.75 299.226562 204.277344 C 300.460938 204.800781 301.648438 205.414062 302.789062 206.117188 C 303.929688 206.824219 305.011719 207.609375 306.035156 208.476562 C 307.054688 209.347656 308.007812 210.289062 308.886719 211.300781 C 313.5 215.945312 316.296875 222.011719 316.296875 228.644531 L 316.296875 228.75 C 316.292969 228.855469 316.332031 228.945312 316.40625 229.023438 C 316.480469 229.097656 316.570312 229.136719 316.675781 229.136719 L 350.644531 229.136719 C 350.75 229.136719 350.839844 229.097656 350.914062 229.023438 C 350.988281 228.949219 351.027344 228.859375 351.027344 228.753906 L 351.027344 211.683594 C 351.027344 211.578125 350.988281 211.488281 350.914062 211.414062 C 350.839844 211.339844 350.75 211.300781 350.644531 211.300781 Z M 31.675781 187.175781 C 31.6875 186.472656 31.875 185.824219 32.238281 185.226562 C 32.601562 184.625 33.09375 184.160156 33.707031 183.828125 L 42.507812 179.101562 L 42.507812 184.265625 L 32.253906 189.4375 C 32.195312 189.46875 32.132812 189.484375 32.066406 189.480469 C 31.996094 189.480469 31.933594 189.460938 31.878906 189.425781 C 31.820312 189.390625 31.773438 189.34375 31.742188 189.285156 C 31.707031 189.226562 31.691406 189.164062 31.695312 189.09375 C 31.695312 189.09375 31.660156 188.175781 31.675781 187.175781 Z M 32.074219 197.820312 C 31.96875 197.820312 31.878906 197.78125 31.804688 197.707031 C 31.730469 197.632812 31.695312 197.542969 31.695312 197.4375 L 31.695312 193.570312 C 31.695312 193.410156 31.761719 193.296875 31.90625 193.226562 L 42.507812 187.890625 L 42.507812 197.820312 Z M 42.507812 201.050781 L 42.507812 204.980469 L 32.074219 204.980469 C 31.96875 204.980469 31.878906 204.945312 31.804688 204.871094 C 31.730469 204.796875 31.695312 204.707031 31.695312 204.601562 L 31.695312 201.433594 C 31.695312 201.328125 31.730469 201.234375 31.804688 201.160156 C 31.878906 201.085938 31.96875 201.050781 32.074219 201.050781 Z M 45.175781 213.585938 C 45.175781 213.691406 45.136719 213.78125 45.0625 213.855469 C 44.988281 213.933594 44.898438 213.96875 44.792969 213.96875 L 32.074219 213.96875 C 31.96875 213.96875 31.878906 213.933594 31.804688 213.855469 C 31.730469 213.78125 31.695312 213.691406 31.695312 213.585938 L 31.695312 208.59375 C 31.695312 208.488281 31.730469 208.398438 31.804688 208.324219 C 31.878906 208.25 31.96875 208.210938 32.074219 208.210938 L 44.792969 208.210938 C 44.898438 208.210938 44.988281 208.25 45.0625 208.324219 C 45.136719 208.398438 45.175781 208.488281 45.175781 208.59375 Z M 133.925781 166.402344 C 133.925781 166.507812 133.886719 166.597656 133.8125 166.671875 C 133.738281 166.75 133.648438 166.785156 133.542969 166.785156 L 70.554688 166.785156 C 70.449219 166.785156 70.355469 166.75 70.28125 166.671875 C 70.207031 166.597656 70.171875 166.507812 70.171875 166.402344 L 70.171875 138.238281 C 70.171875 138.132812 70.207031 138.042969 70.28125 137.96875 C 70.355469 137.894531 70.449219 137.855469 70.554688 137.855469 L 133.542969 137.855469 C 133.648438 137.855469 133.738281 137.894531 133.8125 137.96875 C 133.886719 138.042969 133.925781 138.132812 133.925781 138.238281 Z M 206.175781 166.785156 L 142.171875 166.785156 C 142.066406 166.785156 141.976562 166.75 141.902344 166.671875 C 141.824219 166.597656 141.789062 166.507812 141.789062 166.402344 L 141.789062 138.238281 C 141.789062 138.132812 141.824219 138.042969 141.902344 137.96875 C 141.976562 137.894531 142.066406 137.855469 142.171875 137.855469 L 199.160156 137.855469 C 199.359375 137.855469 199.484375 137.953125 199.53125 138.148438 L 206.550781 166.3125 C 206.582031 166.433594 206.558594 166.542969 206.480469 166.640625 C 206.402344 166.738281 206.300781 166.785156 206.175781 166.785156 Z M 261.714844 166.261719 C 261.714844 166.367188 261.675781 166.457031 261.605469 166.53125 C 261.53125 166.605469 261.441406 166.644531 261.335938 166.644531 C 260.867188 166.644531 260.414062 166.734375 259.976562 166.914062 C 259.542969 167.09375 259.15625 167.351562 258.824219 167.683594 C 258.488281 168.015625 258.234375 168.398438 258.050781 168.835938 C 257.871094 169.269531 257.78125 169.722656 257.78125 170.195312 C 257.78125 170.289062 257.761719 170.378906 257.71875 170.464844 C 257.675781 170.546875 257.617188 170.617188 257.539062 170.675781 C 257.464844 170.730469 257.378906 170.769531 257.289062 170.785156 C 257.195312 170.800781 257.101562 170.796875 257.011719 170.769531 L 255.496094 170.320312 C 255.230469 170.238281 255.027344 170.078125 254.886719 169.835938 C 254.75 169.59375 254.714844 169.335938 254.785156 169.066406 L 255.988281 164.332031 C 256.269531 163.242188 255.820312 162.191406 254.992188 161.980469 C 254.164062 161.769531 253.269531 162.480469 252.992188 163.570312 L 252.023438 167.488281 C 251.042969 167.628906 249.496094 167.769531 245.984375 169.875 L 241.453125 173.398438 C 241.335938 173.527344 241.195312 173.558594 241.035156 173.496094 C 240.871094 173.433594 240.792969 173.316406 240.789062 173.140625 L 240.789062 166.585938 C 240.789062 166.429688 240.789062 166.273438 240.777344 166.121094 C 240.777344 166.070312 240.769531 166.023438 240.761719 165.980469 C 240.761719 165.878906 240.746094 165.773438 240.734375 165.671875 C 240.734375 165.617188 240.722656 165.5625 240.710938 165.503906 C 240.699219 165.410156 240.6875 165.316406 240.667969 165.222656 C 240.660156 165.167969 240.648438 165.113281 240.636719 165.058594 C 240.617188 164.960938 240.597656 164.867188 240.578125 164.777344 C 240.5625 164.726562 240.554688 164.675781 240.539062 164.625 C 240.511719 164.515625 240.480469 164.410156 240.449219 164.308594 C 240.4375 164.273438 240.429688 164.238281 240.417969 164.207031 C 240.375 164.066406 240.328125 163.9375 240.277344 163.804688 C 240.265625 163.773438 240.25 163.742188 240.238281 163.707031 C 240.199219 163.609375 240.15625 163.511719 240.113281 163.417969 C 240.089844 163.371094 240.066406 163.328125 240.046875 163.277344 C 240.007812 163.195312 239.96875 163.113281 239.921875 163.035156 C 239.898438 162.988281 239.875 162.945312 239.847656 162.894531 C 239.804688 162.820312 239.761719 162.746094 239.707031 162.671875 L 239.625 162.542969 C 239.574219 162.464844 239.523438 162.390625 239.46875 162.3125 C 239.445312 162.277344 239.421875 162.242188 239.394531 162.210938 C 239.316406 162.101562 239.234375 162 239.148438 161.898438 C 239.0625 161.800781 238.976562 161.703125 238.890625 161.617188 L 238.800781 161.527344 C 238.734375 161.464844 238.671875 161.40625 238.605469 161.347656 C 238.570312 161.3125 238.535156 161.285156 238.496094 161.25 C 238.460938 161.21875 238.449219 161.210938 238.425781 161.1875 C 237.855469 160.703125 237.566406 160.085938 237.5625 159.339844 L 237.5625 158.875 C 237.558594 158.734375 237.617188 158.625 237.738281 158.550781 C 239.542969 157.449219 240.792969 155.078125 240.792969 152.332031 C 240.792969 148.53125 238.402344 145.449219 235.457031 145.449219 C 232.507812 145.449219 230.117188 148.53125 230.117188 152.332031 C 230.117188 155.007812 231.304688 157.328125 233.035156 158.464844 C 233.15625 158.546875 233.210938 158.660156 233.203125 158.808594 C 233.140625 159.871094 232.730469 160.777344 231.96875 161.527344 L 231.929688 161.570312 L 231.859375 161.640625 C 231.789062 161.714844 231.71875 161.78125 231.65625 161.863281 C 231.632812 161.890625 231.609375 161.917969 231.585938 161.949219 C 231.515625 162.027344 231.445312 162.113281 231.382812 162.203125 C 231.371094 162.21875 231.359375 162.234375 231.34375 162.253906 C 231.269531 162.355469 231.191406 162.464844 231.125 162.574219 L 231.066406 162.667969 C 231.011719 162.75 230.964844 162.832031 230.914062 162.921875 L 230.851562 163.035156 C 230.804688 163.125 230.757812 163.21875 230.710938 163.3125 C 230.699219 163.34375 230.683594 163.371094 230.667969 163.398438 C 230.613281 163.523438 230.558594 163.648438 230.507812 163.773438 L 230.472656 163.863281 C 230.4375 163.964844 230.398438 164.066406 230.367188 164.167969 L 230.328125 164.285156 C 230.296875 164.378906 230.269531 164.476562 230.246094 164.574219 C 230.234375 164.617188 230.21875 164.664062 230.207031 164.714844 C 230.175781 164.851562 230.144531 164.992188 230.117188 165.136719 C 230.117188 165.15625 230.117188 165.179688 230.105469 165.203125 C 230.082031 165.320312 230.0625 165.441406 230.046875 165.566406 C 230.046875 165.609375 230.039062 165.652344 230.035156 165.695312 C 230.019531 165.8125 230.007812 165.925781 230 166.042969 C 230 166.082031 229.992188 166.117188 229.992188 166.15625 C 229.984375 166.304688 229.980469 166.453125 229.980469 166.605469 L 229.980469 175.777344 C 229.976562 175.855469 230 175.925781 230.042969 175.992188 L 230.960938 177.316406 L 230.960938 177.425781 C 232.648438 180.160156 233.492188 183.136719 233.488281 186.355469 L 233.488281 199.542969 C 233.488281 199.648438 233.523438 199.738281 233.601562 199.816406 C 233.675781 199.890625 233.765625 199.925781 233.871094 199.925781 L 244.542969 199.925781 C 246.179688 199.925781 247.777344 199.683594 249.34375 199.195312 C 250.90625 198.710938 252.363281 198.003906 253.710938 197.078125 L 254.089844 196.761719 C 254.195312 196.683594 254.246094 196.578125 254.242188 196.445312 C 254.242188 196.316406 254.183594 196.210938 254.074219 196.140625 L 240.960938 187.328125 C 240.847656 187.25 240.789062 187.144531 240.789062 187.007812 L 240.789062 180.425781 C 240.796875 180.304688 240.851562 180.207031 240.949219 180.136719 C 241.125 180.011719 241.285156 179.871094 241.429688 179.714844 L 247.953125 172.402344 C 248.792969 171.839844 250.058594 171.558594 250.902344 172.121094 L 249.152344 178.675781 C 248.875 179.765625 249.324219 180.816406 250.148438 181.027344 C 250.976562 181.238281 251.871094 180.527344 252.148438 179.4375 L 253.335938 174.765625 C 253.378906 174.589844 253.457031 174.433594 253.566406 174.289062 C 253.671875 174.148438 253.804688 174.03125 253.960938 173.945312 C 254.117188 173.855469 254.28125 173.800781 254.460938 173.78125 C 254.636719 173.757812 254.8125 173.773438 254.984375 173.824219 C 255.386719 173.945312 255.761719 174.125 256.109375 174.363281 C 256.453125 174.605469 256.753906 174.894531 257.003906 175.230469 C 257.257812 175.566406 257.449219 175.933594 257.582031 176.335938 C 257.714844 176.734375 257.78125 177.144531 257.78125 177.566406 L 257.78125 181.671875 L 261.332031 181.671875 C 261.4375 181.671875 261.527344 181.707031 261.601562 181.78125 C 261.675781 181.855469 261.714844 181.945312 261.714844 182.050781 L 261.714844 183.738281 C 261.714844 184.300781 261.6875 184.863281 261.632812 185.421875 C 261.574219 185.980469 261.492188 186.535156 261.382812 187.089844 C 261.273438 187.640625 261.136719 188.183594 260.972656 188.722656 C 260.8125 189.261719 260.621094 189.789062 260.40625 190.308594 C 260.191406 190.828125 259.949219 191.335938 259.6875 191.832031 C 259.421875 192.328125 259.132812 192.8125 258.820312 193.277344 C 258.507812 193.746094 258.171875 194.195312 257.816406 194.632812 C 257.457031 195.066406 257.082031 195.484375 256.683594 195.878906 C 256.285156 196.277344 255.871094 196.65625 255.433594 197.011719 C 255 197.367188 254.550781 197.703125 254.082031 198.015625 C 253.613281 198.328125 253.132812 198.617188 252.636719 198.882812 C 252.140625 199.148438 251.632812 199.386719 251.113281 199.601562 C 250.59375 199.816406 250.0625 200.007812 249.527344 200.171875 C 248.988281 200.332031 248.441406 200.46875 247.890625 200.578125 C 247.339844 200.6875 246.785156 200.773438 246.222656 200.828125 C 245.664062 200.882812 245.101562 200.910156 244.539062 200.910156 L 232.886719 200.910156 C 232.78125 200.910156 232.691406 200.871094 232.617188 200.796875 C 232.539062 200.722656 232.503906 200.632812 232.503906 200.527344 L 232.503906 186.355469 C 232.507812 183.226562 231.664062 180.34375 229.976562 177.707031 C 229.882812 177.566406 229.785156 177.414062 229.683594 177.269531 L 229.613281 177.164062 C 229.511719 177.027344 229.410156 176.886719 229.308594 176.746094 C 229.199219 176.605469 229.089844 176.464844 228.976562 176.324219 C 228.957031 176.296875 228.933594 176.269531 228.914062 176.242188 C 228.800781 176.101562 228.6875 175.96875 228.570312 175.835938 C 228.453125 175.703125 228.359375 175.597656 228.253906 175.480469 L 228.199219 175.425781 C 228.113281 175.332031 228.023438 175.238281 227.933594 175.144531 L 227.851562 175.058594 C 227.765625 174.972656 227.683594 174.890625 227.597656 174.808594 L 227.515625 174.726562 C 227.40625 174.625 227.292969 174.519531 227.179688 174.417969 C 227.066406 174.3125 226.949219 174.210938 226.832031 174.113281 L 226.738281 174.039062 L 226.476562 173.820312 L 226.359375 173.726562 C 226.273438 173.660156 226.1875 173.585938 226.101562 173.53125 L 225.992188 173.449219 C 225.871094 173.355469 225.746094 173.269531 225.621094 173.179688 C 225.101562 172.816406 224.5625 172.484375 224 172.1875 C 223.863281 172.113281 223.792969 171.996094 223.796875 171.839844 L 223.796875 138.238281 C 223.796875 138.132812 223.835938 138.042969 223.910156 137.96875 C 223.984375 137.894531 224.074219 137.855469 224.179688 137.855469 L 261.332031 137.855469 C 261.4375 137.855469 261.527344 137.894531 261.601562 137.96875 C 261.675781 138.042969 261.714844 138.132812 261.714844 138.238281 Z M 261.714844 166.261719 " fill-opacity="1" fill-rule="nonzero"/></g><path fill="#ffffff" d="M 225.203125 157.515625 C 224.910156 157.515625 224.628906 157.578125 224.359375 157.695312 L 224.359375 171.738281 C 225.699219 172.464844 226.917969 173.359375 228.011719 174.421875 L 228.011719 161.324219 C 228.011719 159.226562 226.746094 157.515625 225.203125 157.515625 Z M 225.203125 157.515625 " fill-opacity="1" fill-rule="nonzero"/><path fill="#ffffff" d="M 190.988281 155.746094 C 192.078125 154.511719 192.765625 152.742188 192.765625 150.777344 C 192.765625 147.054688 190.3125 144.035156 187.289062 144.035156 C 184.261719 144.035156 181.8125 147.054688 181.8125 150.777344 C 181.8125 152.867188 182.585938 154.738281 183.800781 155.972656 C 181.328125 157.695312 179.285156 161.070312 178.042969 165.382812 L 197.085938 165.382812 C 195.792969 160.871094 193.613281 157.386719 190.988281 155.746094 Z M 190.988281 155.746094 " fill-opacity="1" fill-rule="nonzero"/><path fill="#ffffff" d="M 162.429688 154.125 C 163.71875 152.925781 164.539062 151.085938 164.539062 149.019531 C 164.539062 145.414062 162.023438 142.492188 158.921875 142.492188 C 155.820312 142.492188 153.304688 145.414062 153.304688 149.019531 C 153.304688 150.898438 153.984375 152.589844 155.078125 153.78125 C 152.082031 155.65625 149.667969 159.925781 148.476562 165.382812 L 168.507812 165.382812 C 167.398438 160.234375 165.1875 156.144531 162.429688 154.125 Z M 162.429688 154.125 " fill-opacity="1" fill-rule="nonzero"/><path fill="#ffffff" d="M 126.292969 157.910156 C 127.59375 156.59375 128.449219 154.394531 128.449219 151.898438 C 128.449219 147.867188 126.214844 144.597656 123.464844 144.597656 C 120.710938 144.597656 118.476562 147.867188 118.476562 151.898438 C 118.476562 154.4375 119.363281 156.675781 120.703125 157.980469 C 119.179688 159.441406 117.878906 162.046875 116.960938 165.382812 L 130.105469 165.382812 C 129.175781 161.992188 127.847656 159.359375 126.292969 157.910156 Z M 126.292969 157.910156 " fill-opacity="1" fill-rule="nonzero"/><path fill="#ffffff" d="M 105.277344 156.136719 C 106.355469 154.964844 107.039062 153.214844 107.039062 151.257812 C 107.039062 147.734375 104.824219 144.878906 102.089844 144.878906 C 99.359375 144.878906 97.144531 147.734375 97.144531 151.257812 C 97.144531 153.214844 97.828125 154.964844 98.902344 156.136719 C 96.09375 157.621094 93.816406 161.019531 92.648438 165.382812 L 111.535156 165.382812 C 110.371094 161.019531 108.085938 157.621094 105.277344 156.136719 Z M 105.277344 156.136719 " fill-opacity="1" fill-rule="nonzero"/><path fill="#ffffff" d="M 98.257812 229.136719 C 98.257812 229.578125 98.214844 230.015625 98.125 230.449219 C 98.039062 230.882812 97.914062 231.304688 97.742188 231.714844 C 97.574219 232.125 97.367188 232.511719 97.121094 232.878906 C 96.875 233.246094 96.59375 233.589844 96.28125 233.902344 C 95.96875 234.214844 95.628906 234.492188 95.261719 234.738281 C 94.894531 234.984375 94.503906 235.191406 94.09375 235.363281 C 93.6875 235.53125 93.265625 235.660156 92.832031 235.746094 C 92.398438 235.832031 91.957031 235.875 91.515625 235.875 C 91.074219 235.875 90.636719 235.832031 90.199219 235.746094 C 89.765625 235.660156 89.34375 235.53125 88.9375 235.363281 C 88.527344 235.191406 88.140625 234.984375 87.769531 234.738281 C 87.402344 234.492188 87.0625 234.214844 86.75 233.902344 C 86.4375 233.589844 86.15625 233.246094 85.910156 232.878906 C 85.664062 232.511719 85.457031 232.125 85.289062 231.714844 C 85.117188 231.304688 84.992188 230.882812 84.90625 230.449219 C 84.820312 230.015625 84.773438 229.578125 84.773438 229.136719 C 84.773438 228.691406 84.820312 228.253906 84.90625 227.820312 C 84.992188 227.386719 85.117188 226.964844 85.289062 226.554688 C 85.457031 226.148438 85.664062 225.757812 85.910156 225.390625 C 86.15625 225.023438 86.4375 224.683594 86.75 224.367188 C 87.0625 224.054688 87.402344 223.777344 87.769531 223.53125 C 88.140625 223.285156 88.527344 223.078125 88.9375 222.90625 C 89.34375 222.738281 89.765625 222.609375 90.199219 222.523438 C 90.636719 222.4375 91.074219 222.394531 91.515625 222.394531 C 91.957031 222.394531 92.398438 222.4375 92.832031 222.523438 C 93.265625 222.609375 93.6875 222.738281 94.09375 222.90625 C 94.503906 223.078125 94.894531 223.285156 95.261719 223.53125 C 95.628906 223.777344 95.96875 224.054688 96.28125 224.367188 C 96.59375 224.683594 96.875 225.023438 97.121094 225.390625 C 97.367188 225.757812 97.574219 226.148438 97.742188 226.554688 C 97.914062 226.964844 98.039062 227.386719 98.125 227.820312 C 98.214844 228.253906 98.257812 228.691406 98.257812 229.136719 Z M 98.257812 229.136719 " fill-opacity="1" fill-rule="nonzero"/><path fill="#ffffff" d="M 91.515625 204.839844 C 90.71875 204.839844 89.925781 204.878906 89.132812 204.957031 C 88.34375 205.035156 87.554688 205.152344 86.777344 205.308594 C 85.996094 205.464844 85.226562 205.65625 84.464844 205.886719 C 83.703125 206.117188 82.953125 206.386719 82.21875 206.691406 C 81.484375 206.996094 80.765625 207.335938 80.0625 207.710938 C 79.363281 208.085938 78.679688 208.492188 78.019531 208.933594 C 77.355469 209.378906 76.71875 209.851562 76.105469 210.355469 C 75.488281 210.859375 74.898438 211.394531 74.335938 211.957031 C 73.773438 212.519531 73.242188 213.109375 72.734375 213.722656 C 72.230469 214.339844 71.757812 214.976562 71.316406 215.636719 C 70.875 216.300781 70.464844 216.980469 70.089844 217.683594 C 69.714844 218.386719 69.375 219.101562 69.070312 219.839844 C 68.765625 220.574219 68.5 221.320312 68.269531 222.082031 C 68.035156 222.84375 67.84375 223.617188 67.6875 224.394531 C 67.535156 225.175781 67.417969 225.960938 67.339844 226.753906 C 67.261719 227.546875 67.222656 228.339844 67.222656 229.136719 C 67.222656 229.929688 67.261719 230.726562 67.339844 231.515625 C 67.417969 232.308594 67.535156 233.09375 67.6875 233.875 C 67.84375 234.65625 68.035156 235.425781 68.269531 236.1875 C 68.5 236.949219 68.765625 237.695312 69.070312 238.433594 C 69.375 239.167969 69.714844 239.886719 70.089844 240.585938 C 70.464844 241.289062 70.875 241.96875 71.316406 242.632812 C 71.757812 243.292969 72.230469 243.933594 72.734375 244.546875 C 73.242188 245.164062 73.773438 245.75 74.335938 246.3125 C 74.898438 246.875 75.488281 247.410156 76.105469 247.914062 C 76.71875 248.417969 77.355469 248.894531 78.019531 249.335938 C 78.679688 249.777344 79.363281 250.183594 80.0625 250.5625 C 80.765625 250.9375 81.484375 251.277344 82.21875 251.578125 C 82.953125 251.882812 83.703125 252.152344 84.464844 252.382812 C 85.226562 252.613281 85.996094 252.808594 86.777344 252.960938 C 87.554688 253.117188 88.34375 253.234375 89.132812 253.3125 C 89.925781 253.390625 90.71875 253.429688 91.515625 253.429688 C 92.3125 253.429688 93.105469 253.390625 93.898438 253.3125 C 94.6875 253.234375 95.476562 253.117188 96.253906 252.960938 C 97.035156 252.808594 97.804688 252.613281 98.566406 252.382812 C 99.328125 252.152344 100.078125 251.882812 100.8125 251.578125 C 101.546875 251.277344 102.265625 250.9375 102.96875 250.5625 C 103.667969 250.183594 104.351562 249.777344 105.011719 249.335938 C 105.675781 248.894531 106.3125 248.417969 106.925781 247.914062 C 107.542969 247.410156 108.132812 246.875 108.695312 246.3125 C 109.257812 245.75 109.789062 245.164062 110.296875 244.546875 C 110.800781 243.933594 111.273438 243.292969 111.714844 242.632812 C 112.15625 241.96875 112.566406 241.289062 112.941406 240.585938 C 113.316406 239.886719 113.65625 239.167969 113.960938 238.433594 C 114.265625 237.695312 114.53125 236.949219 114.761719 236.1875 C 114.996094 235.425781 115.1875 234.65625 115.34375 233.875 C 115.5 233.09375 115.613281 232.308594 115.691406 231.515625 C 115.769531 230.726562 115.808594 229.929688 115.808594 229.136719 C 115.808594 228.339844 115.769531 227.546875 115.691406 226.753906 C 115.613281 225.960938 115.5 225.175781 115.34375 224.394531 C 115.1875 223.617188 114.996094 222.84375 114.761719 222.082031 C 114.53125 221.320312 114.265625 220.574219 113.960938 219.839844 C 113.65625 219.101562 113.316406 218.386719 112.941406 217.683594 C 112.566406 216.980469 112.15625 216.300781 111.714844 215.636719 C 111.273438 214.976562 110.800781 214.339844 110.296875 213.722656 C 109.789062 213.109375 109.257812 212.519531 108.695312 211.957031 C 108.132812 211.394531 107.542969 210.859375 106.925781 210.355469 C 106.3125 209.851562 105.675781 209.378906 105.011719 208.933594 C 104.351562 208.492188 103.667969 208.085938 102.96875 207.710938 C 102.265625 207.335938 101.546875 206.996094 100.8125 206.691406 C 100.078125 206.386719 99.328125 206.117188 98.566406 205.886719 C 97.804688 205.65625 97.035156 205.464844 96.253906 205.308594 C 95.476562 205.152344 94.6875 205.035156 93.898438 204.957031 C 93.105469 204.878906 92.3125 204.839844 91.515625 204.839844 Z M 91.515625 242.898438 C 90.613281 242.898438 89.71875 242.808594 88.832031 242.632812 C 87.945312 242.457031 87.085938 242.195312 86.25 241.847656 C 85.414062 241.503906 84.621094 241.078125 83.871094 240.578125 C 83.117188 240.074219 82.421875 239.503906 81.785156 238.867188 C 81.144531 238.226562 80.574219 237.53125 80.074219 236.78125 C 79.570312 236.03125 79.148438 235.238281 78.800781 234.402344 C 78.457031 233.566406 78.195312 232.707031 78.019531 231.820312 C 77.84375 230.933594 77.753906 230.039062 77.753906 229.136719 C 77.753906 228.230469 77.84375 227.335938 78.019531 226.449219 C 78.195312 225.5625 78.457031 224.703125 78.800781 223.867188 C 79.148438 223.035156 79.570312 222.242188 80.074219 221.488281 C 80.574219 220.738281 81.144531 220.042969 81.785156 219.402344 C 82.421875 218.765625 83.117188 218.195312 83.871094 217.691406 C 84.621094 217.191406 85.414062 216.765625 86.25 216.421875 C 87.085938 216.074219 87.945312 215.8125 88.832031 215.636719 C 89.71875 215.460938 90.613281 215.375 91.515625 215.375 C 92.417969 215.375 93.3125 215.460938 94.199219 215.636719 C 95.085938 215.8125 95.949219 216.074219 96.78125 216.421875 C 97.617188 216.765625 98.410156 217.191406 99.160156 217.691406 C 99.914062 218.195312 100.609375 218.765625 101.246094 219.402344 C 101.886719 220.042969 102.457031 220.738281 102.957031 221.488281 C 103.460938 222.242188 103.882812 223.035156 104.230469 223.867188 C 104.574219 224.703125 104.835938 225.5625 105.011719 226.449219 C 105.191406 227.335938 105.277344 228.230469 105.277344 229.136719 C 105.277344 230.039062 105.1875 230.933594 105.011719 231.820312 C 104.832031 232.703125 104.570312 233.566406 104.226562 234.398438 C 103.878906 235.234375 103.457031 236.027344 102.953125 236.777344 C 102.453125 237.527344 101.882812 238.222656 101.242188 238.863281 C 100.605469 239.5 99.910156 240.070312 99.15625 240.574219 C 98.40625 241.074219 97.613281 241.5 96.78125 241.84375 C 95.945312 242.191406 95.085938 242.453125 94.199219 242.628906 C 93.3125 242.808594 92.417969 242.894531 91.515625 242.898438 Z M 91.515625 242.898438 " fill-opacity="1" fill-rule="nonzero"/><path fill="#ffffff" d="M 83.277344 158.460938 C 84.625 157.257812 85.507812 155.242188 85.507812 152.960938 C 85.507812 149.273438 83.199219 146.28125 80.347656 146.28125 C 77.5 146.28125 75.191406 149.273438 75.191406 152.960938 C 75.191406 155.28125 76.105469 157.328125 77.492188 158.523438 C 75.898438 159.871094 74.542969 162.289062 73.59375 165.382812 L 87.25 165.382812 C 86.285156 162.238281 84.902344 159.796875 83.277344 158.460938 Z M 83.277344 158.460938 " fill-opacity="1" fill-rule="nonzero"/></svg>